<?xml version="1.0" encoding="UTF-8" standalone="no"?>
<!DOCTYPE svg PUBLIC "-//W3C//DTD SVG 1.0//EN" "http://www.w3.org/TR/2001/PR-SVG-20010719/DTD/svg10.dtd">
<svg width="52cm" height="14cm" viewBox="295 19 1035 269" xmlns="http://www.w3.org/2000/svg" xmlns:xlink="http://www.w3.org/1999/xlink">
  <g>
    <rect style="fill: #ffffff" x="644" y="20" width="279.5" height="28"/>
    <rect style="fill: none; fill-opacity:0; stroke-width: 2; stroke: #000000" x="644" y="20" width="279.5" height="28"/>
    <text style="fill: #000000;text-anchor:middle;font-size:16;font-family:sanserif;font-style:normal;font-weight:700" x="783.75" y="39">ZombeRiot-i3DTools.sp</text>
    <rect style="fill: #ffffff" x="644" y="48" width="279.5" height="8"/>
    <rect style="fill: none; fill-opacity:0; stroke-width: 2; stroke: #000000" x="644" y="48" width="279.5" height="8"/>
    <rect style="fill: #ffffff" x="644" y="56" width="279.5" height="52"/>
    <rect style="fill: none; fill-opacity:0; stroke-width: 2; stroke: #000000" x="644" y="56" width="279.5" height="52"/>
    <text style="fill: #000000;text-anchor:start;font-size:12.8;font-family:monospace;font-style:normal;font-weight:normal" x="647" y="70">+OnPluginStart(): void</text>
    <text style="fill: #000000;text-anchor:start;font-size:12.8;font-family:monospace;font-style:normal;font-weight:normal" x="647" y="86">+OnPlayerSpawn(): void</text>
    <text style="fill: #000000;text-anchor:start;font-size:12.8;font-family:monospace;font-style:normal;font-weight:normal" x="647" y="102">+eventWeaponFired(client:int): void</text>
  </g>
  <g>
    <rect style="fill: #ffffff" x="296" y="155" width="364.2" height="28"/>
    <rect style="fill: none; fill-opacity:0; stroke-width: 2; stroke: #000000" x="296" y="155" width="364.2" height="28"/>
    <text style="fill: #000000;text-anchor:middle;font-size:16;font-family:sanserif;font-style:normal;font-weight:700" x="478.1" y="174">playerclasses.inc</text>
    <rect style="fill: #ffffff" x="296" y="183" width="364.2" height="20"/>
    <rect style="fill: none; fill-opacity:0; stroke-width: 2; stroke: #000000" x="296" y="183" width="364.2" height="20"/>
    <text style="fill: #000000;text-anchor:start;font-size:12.8;font-family:monospace;font-style:normal;font-weight:normal" x="299" y="197">-playerclass: int[]</text>
    <rect style="fill: #ffffff" x="296" y="203" width="364.2" height="84"/>
    <rect style="fill: none; fill-opacity:0; stroke-width: 2; stroke: #000000" x="296" y="203" width="364.2" height="84"/>
    <text style="fill: #000000;text-anchor:start;font-size:12.8;font-family:monospace;font-style:normal;font-weight:normal" x="299" y="217">+buildClassMenu(): void</text>
    <text style="fill: #000000;text-anchor:start;font-size:12.8;font-family:monospace;font-style:normal;font-weight:normal" x="299" y="233">+displayClassMenuTo(client:int): void</text>
    <text style="fill: #000000;text-anchor:start;font-size:12.8;font-family:monospace;font-style:normal;font-weight:normal" x="299" y="249">+assignPlayerClass(client:int,class:int): void</text>
    <text style="fill: #000000;text-anchor:start;font-size:12.8;font-family:monospace;font-style:normal;font-weight:normal" x="299" y="265">+getClass(client:int): int</text>
    <text style="fill: #000000;text-anchor:start;font-size:12.8;font-family:monospace;font-style:normal;font-weight:normal" x="299" y="281">+readClassKV(): void</text>
  </g>
  <g>
    <rect style="fill: #ffffff" x="964" y="154" width="364.2" height="28"/>
    <rect style="fill: none; fill-opacity:0; stroke-width: 2; stroke: #000000" x="964" y="154" width="364.2" height="28"/>
    <text style="fill: #000000;text-anchor:middle;font-size:16;font-family:sanserif;font-style:normal;font-weight:700" x="1146.1" y="173">playercustomisation.inc</text>
    <rect style="fill: #ffffff" x="964" y="182" width="364.2" height="20"/>
    <rect style="fill: none; fill-opacity:0; stroke-width: 2; stroke: #000000" x="964" y="182" width="364.2" height="20"/>
    <text style="fill: #000000;text-anchor:start;font-size:12.8;font-family:monospace;font-style:normal;font-weight:normal" x="967" y="196">-playerCredits: int[]</text>
    <rect style="fill: #ffffff" x="964" y="202" width="364.2" height="36"/>
    <rect style="fill: none; fill-opacity:0; stroke-width: 2; stroke: #000000" x="964" y="202" width="364.2" height="36"/>
    <text style="fill: #000000;text-anchor:start;font-size:12.8;font-family:monospace;font-style:normal;font-weight:normal" x="967" y="216">+getPlayerCredits(client:int): int</text>
    <text style="fill: #000000;text-anchor:start;font-size:12.8;font-family:monospace;font-style:normal;font-weight:normal" x="967" y="232">+addPlayerCredits(client:int,amount:int): void</text>
  </g>
  <g>
    <rect style="fill: #ffffff" x="745" y="156" width="82.05" height="28"/>
    <rect style="fill: none; fill-opacity:0; stroke-width: 2; stroke: #000000" x="745" y="156" width="82.05" height="28"/>
    <text style="fill: #000000;text-anchor:middle;font-size:16;font-family:sanserif;font-style:normal;font-weight:700" x="786.025" y="175">utils.inc</text>
    <rect style="fill: #ffffff" x="745" y="184" width="82.05" height="8"/>
    <rect style="fill: none; fill-opacity:0; stroke-width: 2; stroke: #000000" x="745" y="184" width="82.05" height="8"/>
    <rect style="fill: #ffffff" x="745" y="192" width="82.05" height="8"/>
    <rect style="fill: none; fill-opacity:0; stroke-width: 2; stroke: #000000" x="745" y="192" width="82.05" height="8"/>
  </g>
  <g>
    <polyline style="fill: none; fill-opacity:0; stroke-width: 2; stroke-dasharray: 8; stroke: #000000" points="783.75,109.005 783.75,131.499 478.1,131.499 478.1,147.287 "/>
    <polyline style="fill: none; fill-opacity:0; stroke-width: 2; stroke: #000000" points="473.1,134.639 478.1,150.639 483.1,134.639 "/>
  </g>
  <g>
    <polyline style="fill: none; fill-opacity:0; stroke-width: 2; stroke-dasharray: 8; stroke: #000000" points="783.75,109.005 783.75,131 1146.1,131 1146.1,146.29 "/>
    <polyline style="fill: none; fill-opacity:0; stroke-width: 2; stroke: #000000" points="1141.1,133.642 1146.1,149.642 1151.1,133.642 "/>
  </g>
  <g>
    <polyline style="fill: none; fill-opacity:0; stroke-width: 2; stroke-dasharray: 8; stroke: #000000" points="783.75,109.005 783.75,132 786.025,132 786.025,148.289 "/>
    <polyline style="fill: none; fill-opacity:0; stroke-width: 2; stroke: #000000" points="781.025,135.642 786.025,151.642 791.025,135.642 "/>
  </g>
</svg>
