<?xml version="1.0" encoding="UTF-8" standalone="no"?>
<!DOCTYPE svg PUBLIC "-//W3C//DTD SVG 1.0//EN" "http://www.w3.org/TR/2001/PR-SVG-20010719/DTD/svg10.dtd">
<svg width="59cm" height="23cm" viewBox="18 19 1173 455" xmlns="http://www.w3.org/2000/svg" xmlns:xlink="http://www.w3.org/1999/xlink">
  <g>
    <rect style="fill: #ffffff" x="644" y="20" width="279.5" height="28"/>
    <rect style="fill: none; fill-opacity:0; stroke-width: 2; stroke: #000000" x="644" y="20" width="279.5" height="28"/>
    <text style="fill: #000000;text-anchor:middle;font-size:16;font-family:sanserif;font-style:normal;font-weight:700" x="783.75" y="39">ZombeRiot-i3DTools.sp</text>
    <rect style="fill: #ffffff" x="644" y="48" width="279.5" height="8"/>
    <rect style="fill: none; fill-opacity:0; stroke-width: 2; stroke: #000000" x="644" y="48" width="279.5" height="8"/>
    <rect style="fill: #ffffff" x="644" y="56" width="279.5" height="52"/>
    <rect style="fill: none; fill-opacity:0; stroke-width: 2; stroke: #000000" x="644" y="56" width="279.5" height="52"/>
    <text style="fill: #000000;text-anchor:start;font-size:12.8;font-family:monospace;font-style:normal;font-weight:normal" x="647" y="70">+OnPluginStart(): void</text>
    <text style="fill: #000000;text-anchor:start;font-size:12.8;font-family:monospace;font-style:normal;font-weight:normal" x="647" y="86">+OnPlayerSpawn(): void</text>
    <text style="fill: #000000;text-anchor:start;font-size:12.8;font-family:monospace;font-style:normal;font-weight:normal" x="647" y="102">+eventWeaponFired(client:int): void</text>
  </g>
  <g>
    <rect style="fill: #ffffff" x="296" y="155" width="364.2" height="28"/>
    <rect style="fill: none; fill-opacity:0; stroke-width: 2; stroke: #000000" x="296" y="155" width="364.2" height="28"/>
    <text style="fill: #000000;text-anchor:middle;font-size:16;font-family:sanserif;font-style:normal;font-weight:700" x="478.1" y="174">playerclasses.inc</text>
    <rect style="fill: #ffffff" x="296" y="183" width="364.2" height="84"/>
    <rect style="fill: none; fill-opacity:0; stroke-width: 2; stroke: #000000" x="296" y="183" width="364.2" height="84"/>
    <text style="fill: #000000;text-anchor:start;font-size:12.8;font-family:monospace;font-style:normal;font-weight:normal" x="299" y="197">+CLASS_ASSAULT: #define = 123</text>
    <text style="fill: #000000;text-anchor:start;font-size:12.8;font-family:monospace;font-style:normal;font-weight:normal" x="299" y="213">+CLASS_MEDIC: #define = 124</text>
    <text style="fill: #000000;text-anchor:start;font-size:12.8;font-family:monospace;font-style:normal;font-weight:normal" x="299" y="229">+CLASS_SNIPER: #define = 125</text>
    <text style="fill: #000000;text-anchor:start;font-size:12.8;font-family:monospace;font-style:normal;font-weight:normal" x="299" y="245">+CLASS_SUPPORT: #define = 126</text>
    <text style="fill: #000000;text-anchor:start;font-size:12.8;font-family:monospace;font-style:normal;font-weight:normal" x="299" y="261">-playerclass: int[MAXPLAYERS + 1]</text>
    <rect style="fill: #ffffff" x="296" y="267" width="364.2" height="68"/>
    <rect style="fill: none; fill-opacity:0; stroke-width: 2; stroke: #000000" x="296" y="267" width="364.2" height="68"/>
    <text style="fill: #000000;text-anchor:start;font-size:12.8;font-family:monospace;font-style:normal;font-weight:normal" x="299" y="281">+buildClassMenu(): void</text>
    <text style="fill: #000000;text-anchor:start;font-size:12.8;font-family:monospace;font-style:normal;font-weight:normal" x="299" y="297">+displayClassMenuTo(client:int): void</text>
    <text style="fill: #000000;text-anchor:start;font-size:12.8;font-family:monospace;font-style:normal;font-weight:normal" x="299" y="313">+assignPlayerClass(client:int,class:int): void</text>
    <text style="fill: #000000;text-anchor:start;font-size:12.8;font-family:monospace;font-style:normal;font-weight:normal" x="299" y="329">+getClass(client:int): int</text>
  </g>
  <g>
    <rect style="fill: #ffffff" x="964" y="154" width="226" height="28"/>
    <rect style="fill: none; fill-opacity:0; stroke-width: 2; stroke: #000000" x="964" y="154" width="226" height="28"/>
    <text style="fill: #000000;text-anchor:middle;font-size:16;font-family:sanserif;font-style:normal;font-weight:700" x="1077" y="173">playercustomisation.inc</text>
    <rect style="fill: #ffffff" x="964" y="182" width="226" height="8"/>
    <rect style="fill: none; fill-opacity:0; stroke-width: 2; stroke: #000000" x="964" y="182" width="226" height="8"/>
    <rect style="fill: #ffffff" x="964" y="190" width="226" height="8"/>
    <rect style="fill: none; fill-opacity:0; stroke-width: 2; stroke: #000000" x="964" y="190" width="226" height="8"/>
  </g>
  <g>
    <rect style="fill: #ffffff" x="745" y="156" width="82.05" height="28"/>
    <rect style="fill: none; fill-opacity:0; stroke-width: 2; stroke: #000000" x="745" y="156" width="82.05" height="28"/>
    <text style="fill: #000000;text-anchor:middle;font-size:16;font-family:sanserif;font-style:normal;font-weight:700" x="786.025" y="175">utils.inc</text>
    <rect style="fill: #ffffff" x="745" y="184" width="82.05" height="8"/>
    <rect style="fill: none; fill-opacity:0; stroke-width: 2; stroke: #000000" x="745" y="184" width="82.05" height="8"/>
    <rect style="fill: #ffffff" x="745" y="192" width="82.05" height="8"/>
    <rect style="fill: none; fill-opacity:0; stroke-width: 2; stroke: #000000" x="745" y="192" width="82.05" height="8"/>
  </g>
  <g>
    <rect style="fill: #ffffff" x="19" y="399" width="225.6" height="28"/>
    <rect style="fill: none; fill-opacity:0; stroke-width: 2; stroke: #000000" x="19" y="399" width="225.6" height="28"/>
    <text style="fill: #000000;text-anchor:middle;font-size:16;font-family:sanserif;font-style:normal;font-weight:700" x="131.8" y="418">assaultclass.inc</text>
    <rect style="fill: #ffffff" x="19" y="427" width="225.6" height="8"/>
    <rect style="fill: none; fill-opacity:0; stroke-width: 2; stroke: #000000" x="19" y="427" width="225.6" height="8"/>
    <rect style="fill: #ffffff" x="19" y="435" width="225.6" height="20"/>
    <rect style="fill: none; fill-opacity:0; stroke-width: 2; stroke: #000000" x="19" y="435" width="225.6" height="20"/>
    <text style="fill: #000000;text-anchor:start;font-size:12.8;font-family:monospace;font-style:normal;font-weight:normal" x="22" y="449">+isAssault(client:int): bool</text>
  </g>
  <g>
    <polyline style="fill: none; fill-opacity:0; stroke-width: 2; stroke-dasharray: 8; stroke: #000000" points="478.1,336.006 478.1,367.503 131.8,367.503 131.8,392.295 "/>
    <polyline style="fill: none; fill-opacity:0; stroke-width: 2; stroke: #000000" points="126.8,379.647 131.8,395.647 136.8,379.647 "/>
  </g>
  <g>
    <polyline style="fill: none; fill-opacity:0; stroke-width: 2; stroke-dasharray: 8; stroke: #000000" points="783.75,109.005 783.75,131.5 478.1,131.5 478.1,147.289 "/>
    <polyline style="fill: none; fill-opacity:0; stroke-width: 2; stroke: #000000" points="473.1,134.642 478.1,150.642 483.1,134.642 "/>
  </g>
  <g>
    <polyline style="fill: none; fill-opacity:0; stroke-width: 2; stroke-dasharray: 8; stroke: #000000" points="783.75,109.005 783.75,131 1077,131 1077,146.289 "/>
    <polyline style="fill: none; fill-opacity:0; stroke-width: 2; stroke: #000000" points="1072,133.642 1077,149.642 1082,133.642 "/>
  </g>
  <g>
    <polyline style="fill: none; fill-opacity:0; stroke-width: 2; stroke-dasharray: 8; stroke: #000000" points="783.75,109.005 783.75,132 786.025,132 786.025,148.289 "/>
    <polyline style="fill: none; fill-opacity:0; stroke-width: 2; stroke: #000000" points="781.025,135.642 786.025,151.642 791.025,135.642 "/>
  </g>
  <g>
    <rect style="fill: #ffffff" x="258" y="401" width="233.3" height="28"/>
    <rect style="fill: none; fill-opacity:0; stroke-width: 2; stroke: #000000" x="258" y="401" width="233.3" height="28"/>
    <text style="fill: #000000;text-anchor:middle;font-size:16;font-family:sanserif;font-style:normal;font-weight:700" x="374.65" y="420">medicclass.inc</text>
    <rect style="fill: #ffffff" x="258" y="429" width="233.3" height="8"/>
    <rect style="fill: none; fill-opacity:0; stroke-width: 2; stroke: #000000" x="258" y="429" width="233.3" height="8"/>
    <rect style="fill: #ffffff" x="258" y="437" width="233.3" height="36"/>
    <rect style="fill: none; fill-opacity:0; stroke-width: 2; stroke: #000000" x="258" y="437" width="233.3" height="36"/>
    <text style="fill: #000000;text-anchor:start;font-size:12.8;font-family:monospace;font-style:normal;font-weight:normal" x="261" y="451">+healTarget(client:int): void</text>
    <text style="fill: #000000;text-anchor:start;font-size:12.8;font-family:monospace;font-style:normal;font-weight:normal" x="261" y="467">+isMedic(client:int): bool</text>
  </g>
  <g>
    <polyline style="fill: none; fill-opacity:0; stroke-width: 2; stroke-dasharray: 8; stroke: #000000" points="478.1,336.006 478.1,367.998 374.65,367.998 374.65,393.286 "/>
    <polyline style="fill: none; fill-opacity:0; stroke-width: 2; stroke: #000000" points="369.65,380.638 374.65,396.638 379.65,380.638 "/>
  </g>
  <g>
    <rect style="fill: #ffffff" x="508" y="401" width="310.3" height="28"/>
    <rect style="fill: none; fill-opacity:0; stroke-width: 2; stroke: #000000" x="508" y="401" width="310.3" height="28"/>
    <text style="fill: #000000;text-anchor:middle;font-size:16;font-family:sanserif;font-style:normal;font-weight:700" x="663.15" y="420">sniperclass.inc</text>
    <rect style="fill: #ffffff" x="508" y="429" width="310.3" height="8"/>
    <rect style="fill: none; fill-opacity:0; stroke-width: 2; stroke: #000000" x="508" y="429" width="310.3" height="8"/>
    <rect style="fill: #ffffff" x="508" y="437" width="310.3" height="36"/>
    <rect style="fill: none; fill-opacity:0; stroke-width: 2; stroke: #000000" x="508" y="437" width="310.3" height="36"/>
    <text style="fill: #000000;text-anchor:start;font-size:12.8;font-family:monospace;font-style:normal;font-weight:normal" x="511" y="451">+isSniper(client:int): bool</text>
    <text style="fill: #000000;text-anchor:start;font-size:12.8;font-family:monospace;font-style:normal;font-weight:normal" x="511" y="467">+eventShotSniperRifle(client:int): void</text>
  </g>
  <g>
    <polyline style="fill: none; fill-opacity:0; stroke-width: 2; stroke-dasharray: 8; stroke: #000000" points="478.1,336.006 478.1,367.998 663.15,367.998 663.15,393.286 "/>
    <polyline style="fill: none; fill-opacity:0; stroke-width: 2; stroke: #000000" points="658.15,380.638 663.15,396.638 668.15,380.638 "/>
  </g>
  <g>
    <rect style="fill: #ffffff" x="838" y="401" width="225.6" height="28"/>
    <rect style="fill: none; fill-opacity:0; stroke-width: 2; stroke: #000000" x="838" y="401" width="225.6" height="28"/>
    <text style="fill: #000000;text-anchor:middle;font-size:16;font-family:sanserif;font-style:normal;font-weight:700" x="950.8" y="420">supportclass.inc</text>
    <rect style="fill: #ffffff" x="838" y="429" width="225.6" height="8"/>
    <rect style="fill: none; fill-opacity:0; stroke-width: 2; stroke: #000000" x="838" y="429" width="225.6" height="8"/>
    <rect style="fill: #ffffff" x="838" y="437" width="225.6" height="20"/>
    <rect style="fill: none; fill-opacity:0; stroke-width: 2; stroke: #000000" x="838" y="437" width="225.6" height="20"/>
    <text style="fill: #000000;text-anchor:start;font-size:12.8;font-family:monospace;font-style:normal;font-weight:normal" x="841" y="451">+isSupport(client:int): bool</text>
  </g>
  <g>
    <polyline style="fill: none; fill-opacity:0; stroke-width: 2; stroke-dasharray: 8; stroke: #000000" points="478.1,336.006 478.1,367.999 950.8,367.999 950.8,393.288 "/>
    <polyline style="fill: none; fill-opacity:0; stroke-width: 2; stroke: #000000" points="945.8,380.64 950.8,396.64 955.8,380.64 "/>
  </g>
</svg>
